<mxfile host="65bd71144e">
    <diagram id="ayP8TxJnhVBt33wHEA0B" name="Page-1">
        <mxGraphModel dx="2266" dy="3288" grid="1" gridSize="10" guides="1" tooltips="1" connect="1" arrows="1" fold="1" page="1" pageScale="1" pageWidth="850" pageHeight="1100" math="0" shadow="0">
            <root>
                <mxCell id="0"/>
                <mxCell id="1" parent="0"/>
                <mxCell id="48" value="1931 第二次世界大战" style="rounded=1;whiteSpace=wrap;html=1;fillColor=#9999FF;" vertex="1" parent="1">
                    <mxGeometry y="1360" width="840" height="20" as="geometry"/>
                </mxCell>
                <mxCell id="42" value="1875&amp;nbsp; 开始第二次工业革命" style="rounded=1;whiteSpace=wrap;html=1;fillColor=#E5CCFF;" vertex="1" parent="1">
                    <mxGeometry x="3" y="1180" width="840" height="20" as="geometry"/>
                </mxCell>
                <mxCell id="33" value="2020" style="rounded=1;whiteSpace=wrap;html=1;fillColor=#9999FF;" vertex="1" parent="1">
                    <mxGeometry x="5.5" y="1920" width="840" height="20" as="geometry"/>
                </mxCell>
                <mxCell id="2" value="1550" style="rounded=1;whiteSpace=wrap;html=1;fillColor=#9999FF;" vertex="1" parent="1">
                    <mxGeometry x="5" y="-150" width="840" height="20" as="geometry"/>
                </mxCell>
                <mxCell id="4" value="1750 第一次工业革命" style="rounded=1;whiteSpace=wrap;html=1;fillColor=#9999FF;" vertex="1" parent="1">
                    <mxGeometry y="660" width="840" height="20" as="geometry"/>
                </mxCell>
                <mxCell id="6" value="1600" style="rounded=1;whiteSpace=wrap;html=1;fillColor=#9999FF;" vertex="1" parent="1">
                    <mxGeometry y="30" width="840" height="20" as="geometry"/>
                </mxCell>
                <mxCell id="7" value="1650" style="rounded=1;whiteSpace=wrap;html=1;fillColor=#9999FF;" vertex="1" parent="1">
                    <mxGeometry y="230" width="840" height="20" as="geometry"/>
                </mxCell>
                <mxCell id="8" value="1700" style="rounded=1;whiteSpace=wrap;html=1;fillColor=#9999FF;" vertex="1" parent="1">
                    <mxGeometry y="430" width="840" height="20" as="geometry"/>
                </mxCell>
                <mxCell id="9" value="1800" style="rounded=1;whiteSpace=wrap;html=1;fillColor=#9999FF;" vertex="1" parent="1">
                    <mxGeometry x="8" y="910" width="1212" height="20" as="geometry"/>
                </mxCell>
                <mxCell id="10" value="2000" style="rounded=1;whiteSpace=wrap;html=1;fillColor=#9999FF;" vertex="1" parent="1">
                    <mxGeometry x="3" y="1720" width="840" height="20" as="geometry"/>
                </mxCell>
                <mxCell id="11" value="&lt;div style=&quot;text-align: justify;&quot;&gt;&lt;span style=&quot;background-color: transparent;&quot;&gt;1850 完成第一次工业革命&lt;/span&gt;&lt;/div&gt;" style="rounded=1;whiteSpace=wrap;html=1;fillColor=#9999FF;" vertex="1" parent="1">
                    <mxGeometry x="3" y="1090" width="1207" height="20" as="geometry"/>
                </mxCell>
                <mxCell id="12" value="1914 第一次世界大战" style="rounded=1;whiteSpace=wrap;html=1;fillColor=#9999FF;" vertex="1" parent="1">
                    <mxGeometry x="3" y="1290" width="840" height="20" as="geometry"/>
                </mxCell>
                <mxCell id="13" value="1950" style="rounded=1;whiteSpace=wrap;html=1;fillColor=#9999FF;" vertex="1" parent="1">
                    <mxGeometry x="3" y="1490" width="840" height="20" as="geometry"/>
                </mxCell>
                <mxCell id="14" value="1200" style="rounded=1;whiteSpace=wrap;html=1;fillColor=#9999FF;" vertex="1" parent="1">
                    <mxGeometry x="5" y="-1190" width="840" height="20" as="geometry"/>
                </mxCell>
                <mxCell id="15" value="1500" style="rounded=1;whiteSpace=wrap;html=1;fillColor=#9999FF;" vertex="1" parent="1">
                    <mxGeometry y="-380" width="840" height="20" as="geometry"/>
                </mxCell>
                <mxCell id="16" value="1300" style="rounded=1;whiteSpace=wrap;html=1;fillColor=#9999FF;" vertex="1" parent="1">
                    <mxGeometry y="-1010" width="840" height="20" as="geometry"/>
                </mxCell>
                <mxCell id="17" value="1400" style="rounded=1;whiteSpace=wrap;html=1;fillColor=#9999FF;" vertex="1" parent="1">
                    <mxGeometry y="-810" width="840" height="20" as="geometry"/>
                </mxCell>
                <mxCell id="18" value="1450" style="rounded=1;whiteSpace=wrap;html=1;fillColor=#9999FF;" vertex="1" parent="1">
                    <mxGeometry y="-610" width="840" height="20" as="geometry"/>
                </mxCell>
                <mxCell id="19" value="100BC" style="rounded=1;whiteSpace=wrap;html=1;fillColor=#9999FF;" vertex="1" parent="1">
                    <mxGeometry x="10.5" y="-2170" width="840" height="20" as="geometry"/>
                </mxCell>
                <mxCell id="20" value="1100" style="rounded=1;whiteSpace=wrap;html=1;fillColor=#9999FF;" vertex="1" parent="1">
                    <mxGeometry x="5.5" y="-1360" width="840" height="20" as="geometry"/>
                </mxCell>
                <mxCell id="21" value="00" style="rounded=1;whiteSpace=wrap;html=1;fillColor=#9999FF;" vertex="1" parent="1">
                    <mxGeometry x="5.5" y="-1990" width="840" height="20" as="geometry"/>
                </mxCell>
                <mxCell id="22" value="500" style="rounded=1;whiteSpace=wrap;html=1;fillColor=#9999FF;" vertex="1" parent="1">
                    <mxGeometry x="5.5" y="-1790" width="840" height="20" as="geometry"/>
                </mxCell>
                <mxCell id="23" value="1000" style="rounded=1;whiteSpace=wrap;html=1;fillColor=#9999FF;" vertex="1" parent="1">
                    <mxGeometry x="5.5" y="-1590" width="840" height="20" as="geometry"/>
                </mxCell>
                <mxCell id="24" value="" style="rounded=1;whiteSpace=wrap;html=1;fillColor=#FFCCE6;" vertex="1" parent="1">
                    <mxGeometry x="50" y="-40" width="120" height="880" as="geometry"/>
                </mxCell>
                <mxCell id="25" value="路易十四&lt;div&gt;1638～1715&lt;/div&gt;&lt;div&gt;鼎盛&lt;/div&gt;" style="rounded=1;whiteSpace=wrap;html=1;fillColor=#FFCCE6;" vertex="1" parent="1">
                    <mxGeometry x="50" y="200" width="120" height="280" as="geometry"/>
                </mxCell>
                <mxCell id="26" value="&lt;span style=&quot;color: rgb(0, 0, 0);&quot;&gt;1589年波旁王朝&lt;/span&gt;&lt;div&gt;&lt;span style=&quot;color: rgb(0, 0, 0);&quot;&gt;亨利四世&lt;/span&gt;&lt;/div&gt;" style="rounded=1;whiteSpace=wrap;html=1;fillColor=#FFCCE6;" vertex="1" parent="1">
                    <mxGeometry x="50" y="-40" width="120" height="60" as="geometry"/>
                </mxCell>
                <mxCell id="27" value="&lt;div&gt;路易十六&lt;/div&gt;1754～1793&lt;div&gt;断头台&lt;/div&gt;" style="rounded=1;whiteSpace=wrap;html=1;fillColor=#FFCCE6;" vertex="1" parent="1">
                    <mxGeometry x="50" y="750" width="120" height="90" as="geometry"/>
                </mxCell>
                <mxCell id="28" value="&lt;div&gt;&lt;span style=&quot;color: rgb(0, 0, 0);&quot;&gt;法兰西第一共和国&lt;/span&gt;&lt;/div&gt;&lt;span style=&quot;color: rgb(0, 0, 0);&quot;&gt;法国大革命&lt;/span&gt;&lt;div&gt;&lt;span style=&quot;color: rgb(0, 0, 0);&quot;&gt;1789 年&lt;/span&gt;&lt;/div&gt;" style="rounded=1;whiteSpace=wrap;html=1;fillColor=#FFCCE6;" vertex="1" parent="1">
                    <mxGeometry x="50" y="850" width="120" height="80" as="geometry"/>
                </mxCell>
                <mxCell id="29" value="法兰西第一帝国&lt;div&gt;拿破仑&lt;/div&gt;&lt;div&gt;&lt;br&gt;&lt;/div&gt;" style="rounded=1;whiteSpace=wrap;html=1;fillColor=#FFCCE6;" vertex="1" parent="1">
                    <mxGeometry x="50" y="930" width="120" height="60" as="geometry"/>
                </mxCell>
                <mxCell id="30" value="革命的世纪&lt;div&gt;共和国和波旁王朝交替&lt;/div&gt;" style="rounded=1;whiteSpace=wrap;html=1;fillColor=#FFCCE6;" vertex="1" parent="1">
                    <mxGeometry x="50" y="990" width="120" height="160" as="geometry"/>
                </mxCell>
                <mxCell id="31" value="无产阶级&lt;div&gt;巴黎公社&lt;/div&gt;" style="rounded=1;whiteSpace=wrap;html=1;fillColor=#FFCCE6;" vertex="1" parent="1">
                    <mxGeometry x="50" y="1150" width="120" height="60" as="geometry"/>
                </mxCell>
                <mxCell id="32" value="协约国" style="rounded=1;whiteSpace=wrap;html=1;fillColor=#FFCCE6;" vertex="1" parent="1">
                    <mxGeometry x="50" y="1290" width="120" height="60" as="geometry"/>
                </mxCell>
                <mxCell id="3" value="法国第五共和国&lt;div&gt;1958&amp;nbsp;&lt;/div&gt;&lt;div&gt;戴高乐&lt;/div&gt;" style="rounded=1;whiteSpace=wrap;html=1;fillColor=#FFCCE6;" vertex="1" parent="1">
                    <mxGeometry x="40" y="1510" width="120" height="450" as="geometry"/>
                </mxCell>
                <mxCell id="36" value="&lt;span style=&quot;color: rgb(0, 0, 0);&quot;&gt;伏尔泰&lt;/span&gt;&lt;div&gt;1694～1778&lt;/div&gt;&lt;div&gt;法兰西思想之王&lt;/div&gt;&lt;div&gt;《中国孤儿》剧本&lt;/div&gt;&lt;div&gt;（《赵氏孤儿》）&lt;/div&gt;&lt;div&gt;《查第格》小说&lt;/div&gt;&lt;div&gt;《风俗论》&lt;/div&gt;&lt;div&gt;《天真汉》&lt;/div&gt;" style="rounded=1;whiteSpace=wrap;html=1;fillColor=#CCFFE6;" vertex="1" parent="1">
                    <mxGeometry x="210" y="420" width="120" height="370" as="geometry"/>
                </mxCell>
                <mxCell id="37" value="孟德斯鸠&lt;br&gt;&lt;div&gt;689～1755&lt;/div&gt;&lt;div&gt;启蒙思想家&lt;/div&gt;&lt;div&gt;法学家&lt;/div&gt;" style="rounded=1;whiteSpace=wrap;html=1;fillColor=#CCFFE6;" vertex="1" parent="1">
                    <mxGeometry x="480" y="380" width="120" height="370" as="geometry"/>
                </mxCell>
                <mxCell id="38" value="卢梭&lt;br&gt;&lt;div&gt;1712～1778&lt;/div&gt;&lt;div&gt;&lt;br&gt;&lt;/div&gt;&lt;div&gt;启蒙思想家&lt;/div&gt;&lt;div&gt;哲学家&lt;/div&gt;&lt;div&gt;文学家&lt;/div&gt;" style="rounded=1;whiteSpace=wrap;html=1;fillColor=#CCFFE6;" vertex="1" parent="1">
                    <mxGeometry x="620" y="460" width="120" height="330" as="geometry"/>
                </mxCell>
                <mxCell id="39" value="雨果&lt;br&gt;&lt;div&gt;1802～1885&lt;/div&gt;&lt;div&gt;作家&lt;/div&gt;&lt;div&gt;法兰西莎翁&lt;/div&gt;&lt;div&gt;共和派&lt;/div&gt;&lt;div&gt;国会议员&lt;/div&gt;&lt;div&gt;拿破仑三十驱逐国外&lt;/div&gt;&lt;div&gt;《巴黎圣母院》&lt;/div&gt;&lt;div&gt;《悲惨世界》&lt;/div&gt;&lt;div&gt;《九三年》&lt;/div&gt;" style="rounded=1;whiteSpace=wrap;html=1;fillColor=#CCFFE6;" vertex="1" parent="1">
                    <mxGeometry x="200" y="940" width="120" height="260" as="geometry"/>
                </mxCell>
                <mxCell id="40" value="&lt;span style=&quot;color: rgb(0, 0, 0);&quot;&gt;福楼拜&lt;/span&gt;&lt;div&gt;1821～1880&lt;/div&gt;&lt;div&gt;作家&lt;/div&gt;&lt;div&gt;自然主义之父&lt;/div&gt;&lt;div&gt;新小说派鼻祖&lt;/div&gt;&lt;div&gt;《包法利夫人》&lt;/div&gt;" style="rounded=1;whiteSpace=wrap;html=1;fillColor=#CCFFE6;" vertex="1" parent="1">
                    <mxGeometry x="500" y="1010" width="120" height="190" as="geometry"/>
                </mxCell>
                <mxCell id="44" value="加缪&lt;br&gt;&lt;div&gt;1912～1960&lt;/div&gt;&lt;div&gt;作家&lt;/div&gt;&lt;div&gt;荒诞哲学&lt;/div&gt;&lt;div&gt;《局外人》&lt;/div&gt;&lt;div&gt;《鼠疫》&lt;/div&gt;&lt;div&gt;知其不可为而为之&lt;/div&gt;" style="rounded=1;whiteSpace=wrap;html=1;fillColor=#CCFFE6;" vertex="1" parent="1">
                    <mxGeometry x="200" y="1280" width="120" height="270" as="geometry"/>
                </mxCell>
                <mxCell id="45" value="泰戈尔&lt;div&gt;1861～1941&lt;/div&gt;&lt;div&gt;印度诗人&lt;/div&gt;&lt;div&gt;文学家&lt;/div&gt;&lt;div&gt;名族主义者&lt;/div&gt;&lt;div&gt;《飞鸟集》&lt;/div&gt;&lt;div&gt;《新月集》&lt;/div&gt;&lt;div&gt;《家庭与世界》&lt;/div&gt;&lt;div&gt;孟加拉族、语&lt;/div&gt;&lt;div&gt;《文明的危机》&lt;/div&gt;&lt;div&gt;散文集&lt;/div&gt;" style="rounded=1;whiteSpace=wrap;html=1;fillColor=#FFFFCC;" vertex="1" parent="1">
                    <mxGeometry x="641" y="1150" width="120" height="320" as="geometry"/>
                </mxCell>
                <mxCell id="49" value="" style="rounded=1;whiteSpace=wrap;html=1;fillColor=#FFCCE6;" vertex="1" parent="1">
                    <mxGeometry x="843" y="210" width="120" height="1070" as="geometry"/>
                </mxCell>
                <mxCell id="50" value="清&lt;div&gt;1644～1912&lt;/div&gt;" style="rounded=1;whiteSpace=wrap;html=1;fillColor=#FFCCE6;" vertex="1" parent="1">
                    <mxGeometry x="843" y="210" width="120" height="60" as="geometry"/>
                </mxCell>
                <mxCell id="47" value="托尔斯泰&lt;br&gt;&lt;div&gt;&lt;font color=&quot;#000000&quot;&gt;俄罗斯&lt;br&gt;&lt;/font&gt;&lt;div&gt;1821～1910&lt;/div&gt;&lt;div&gt;作家&lt;/div&gt;&lt;div&gt;《和平与战争》&lt;/div&gt;&lt;/div&gt;&lt;div&gt;《安娜 卡列尼娜》&lt;/div&gt;&lt;div&gt;世界观巨变&lt;/div&gt;&lt;div&gt;《忏悔录》&lt;/div&gt;&lt;div&gt;《复活》&lt;/div&gt;&lt;div&gt;&lt;br&gt;&lt;/div&gt;&lt;div&gt;不认识托尔斯泰，就不可能认识俄罗斯&lt;/div&gt;" style="rounded=1;whiteSpace=wrap;html=1;fillColor=#CCCCCC;" vertex="1" parent="1">
                    <mxGeometry x="1120" y="1000" width="120" height="280" as="geometry"/>
                </mxCell>
                <mxCell id="46" value="陀思妥耶夫斯基&lt;div&gt;&lt;font color=&quot;#000000&quot;&gt;俄罗斯&lt;br&gt;&lt;/font&gt;&lt;div&gt;1821～1881&lt;/div&gt;&lt;div&gt;作家&lt;/div&gt;&lt;div&gt;《死屋手记》&lt;/div&gt;&lt;div&gt;《罪与罚》&lt;/div&gt;&lt;div&gt;《卡拉马佐夫兄弟》&lt;/div&gt;&lt;/div&gt;" style="rounded=1;whiteSpace=wrap;html=1;fillColor=#CCCCCC;" vertex="1" parent="1">
                    <mxGeometry x="980" y="1000" width="120" height="250" as="geometry"/>
                </mxCell>
                <mxCell id="52" value="康熙&lt;div&gt;1654～1722&lt;/div&gt;" style="rounded=1;whiteSpace=wrap;html=1;fillColor=#FFCCE6;" vertex="1" parent="1">
                    <mxGeometry x="843" y="280" width="120" height="200" as="geometry"/>
                </mxCell>
                <mxCell id="53" value="雍正&lt;div&gt;～1735&lt;/div&gt;" style="rounded=1;whiteSpace=wrap;html=1;fillColor=#FFCCE6;" vertex="1" parent="1">
                    <mxGeometry x="843" y="480" width="120" height="60" as="geometry"/>
                </mxCell>
                <mxCell id="54" value="乾隆&lt;div&gt;～1799&lt;/div&gt;" style="rounded=1;whiteSpace=wrap;html=1;fillColor=#FFCCE6;" vertex="1" parent="1">
                    <mxGeometry x="843" y="540" width="120" height="370" as="geometry"/>
                </mxCell>
            </root>
        </mxGraphModel>
    </diagram>
</mxfile>